<svg width="76" height="66" viewBox="0 0 76 66" fill="none" xmlns="http://www.w3.org/2000/svg">
<path fill-rule="evenodd" clip-rule="evenodd" d="M7.40905 3.99139C7.40905 5.31756 6.61082 6.4573 5.4686 6.95635V64.4324C5.4686 64.8888 5.09874 65.2589 4.64229 65.2589H3.70772C3.25127 65.2589 2.88135 64.8888 2.88135 64.4324V6.95635C1.73914 6.45729 0.940918 5.31756 0.940918 3.99139C0.940918 2.20526 2.38886 0.757324 4.17498 0.757324C5.96111 0.757324 7.40905 2.20526 7.40905 3.99139ZM10.104 49.8875C15.2476 49.0042 20.7043 48.4268 30.6221 48.4268C36.3554 48.4268 41.9116 49.0317 46.8481 49.5691C50.7939 49.9987 54.3437 50.3851 57.2715 50.3851C63.4239 50.3851 71.3242 50.1007 74.6788 49.5319C75.0592 49.4674 75.3243 49.1323 75.3243 48.7466V6.6067C75.3243 6.10906 74.8879 5.72452 74.3937 5.78299C69.5188 6.3598 64.3826 6.64821 57.2715 6.64821C53.9261 6.64821 50.4574 6.26523 46.5879 5.838C41.7072 5.29912 36.1889 4.68984 29.4759 4.68984C21.7138 4.68984 15.7263 5.46727 10.8646 6.09852C10.5216 6.14305 10.1842 6.18686 9.8522 6.22962C9.43928 6.28279 9.13061 6.63397 9.13061 7.0503V49.0704C9.13061 49.5854 9.59641 49.9747 10.104 49.8875Z" fill="black"/>
<path fill-rule="evenodd" clip-rule="evenodd" d="M44.6369 25.2041V15.6282C44.6369 15.6282 40.938 15.1338 39.5052 15.1338C39.5052 15.1338 39.4866 19.5647 39.474 24.6925C36.4066 24.4756 33.7033 24.4802 31.2876 24.4843C30.9652 24.4848 30.6478 24.4853 30.3354 24.4853V30.148C32.1859 30.148 35.5302 30.148 39.4638 30.4913C39.4596 35.0824 39.4675 39.1233 39.5052 39.9398C40.232 40.1053 40.8113 40.1869 41.5763 40.2946C42.3194 40.3993 43.2378 40.5286 44.6369 40.7836V31.0791C48.5874 31.5464 51.4966 31.78 54.4059 31.78V25.9048C51.2545 25.9048 48.9234 25.6713 44.6369 25.2041Z" fill="white"/>
</svg>
